<svg xmlns="http://www.w3.org/2000/svg" viewBox="0 0 200 128" role="img" aria-label="This site: a header and a library of pursuit cards">
  <rect width="200" height="128" rx="8" fill="#F8F8FB"/>
  <rect x="1" y="1" width="198" height="126" rx="7.5" fill="none" stroke="#E6E5F0"/>
  <!-- header -->
  <rect x="12" y="12" width="176" height="18" rx="4" fill="#fff" stroke="#E6E5F0"/>
  <rect x="20" y="19" width="4" height="4" rx="1" fill="#1100FF"/>
  <rect x="28" y="19.5" width="30" height="3" rx="1.5" fill="#74767D"/>
  <rect x="70" y="19.5" width="16" height="3" rx="1.5" fill="#D6D3EA"/>
  <rect x="92" y="19.5" width="20" height="3" rx="1.5" fill="#D6D3EA"/>
  <rect x="152" y="16" width="30" height="10" rx="5" fill="#5241B5"/>
  <!-- cards -->
  <g>
    <rect x="12" y="40" width="54" height="46" rx="5" fill="#fff" stroke="#E6E5F0"/>
    <rect x="12" y="40" width="2.5" height="46" rx="1.25" fill="#B62222"/>
    <rect x="20" y="47" width="30" height="4" rx="2" fill="#22242B"/>
    <rect x="20" y="56" width="38" height="2" rx="1" fill="#D6D3EA"/>
    <rect x="20" y="61" width="28" height="2" rx="1" fill="#D6D3EA"/>
    <rect x="20" y="68" width="24" height="3" rx="1.5" fill="#B62222"/>
    <rect x="20" y="78" width="38" height="2.5" rx="1.25" fill="#EEEBFA"/>
    <rect x="20" y="78" width="12" height="2.5" rx="1.25" fill="#5241B5"/>
  </g>
  <g>
    <rect x="73" y="40" width="54" height="46" rx="5" fill="#fff" stroke="#E6E5F0"/>
    <rect x="81" y="47" width="34" height="4" rx="2" fill="#22242B"/>
    <rect x="81" y="56" width="38" height="2" rx="1" fill="#D6D3EA"/>
    <rect x="81" y="61" width="30" height="2" rx="1" fill="#D6D3EA"/>
    <rect x="81" y="68" width="24" height="3" rx="1.5" fill="#74767D"/>
    <rect x="81" y="78" width="38" height="2.5" rx="1.25" fill="#EEEBFA"/>
    <rect x="81" y="78" width="20" height="2.5" rx="1.25" fill="#5241B5"/>
  </g>
  <g>
    <rect x="134" y="40" width="54" height="46" rx="5" fill="#fff" stroke="#E6E5F0"/>
    <rect x="142" y="47" width="26" height="4" rx="2" fill="#22242B"/>
    <rect x="142" y="56" width="38" height="2" rx="1" fill="#D6D3EA"/>
    <rect x="142" y="61" width="34" height="2" rx="1" fill="#D6D3EA"/>
    <rect x="142" y="68" width="24" height="3" rx="1.5" fill="#74767D"/>
    <rect x="142" y="78" width="38" height="2.5" rx="1.25" fill="#EEEBFA"/>
    <rect x="142" y="78" width="28" height="2.5" rx="1.25" fill="#5241B5"/>
  </g>
  <!-- second row hint -->
  <rect x="12" y="94" width="54" height="22" rx="5" fill="#fff" stroke="#E6E5F0" opacity=".6"/>
  <rect x="73" y="94" width="54" height="22" rx="5" fill="#fff" stroke="#E6E5F0" opacity=".35"/>
</svg>
