<svg xmlns="http://www.w3.org/2000/svg" viewBox="0 0 200 128" role="img" aria-label="A published client deck: password gate on, review comments and draft chrome removed">
  <rect width="200" height="128" rx="8" fill="#F8F8FB"/>
  <rect x="1" y="1" width="198" height="126" rx="7.5" fill="none" stroke="#E6E5F0"/>
  <!-- browser frame -->
  <rect x="14" y="14" width="172" height="100" rx="6" fill="#fff" stroke="#E6E5F0"/>
  <path d="M14 20a6 6 0 0 1 6-6h160a6 6 0 0 1 6 6v6H14z" fill="#F0EFF6"/>
  <circle cx="24" cy="20" r="2" fill="#D6D3EA"/><circle cx="31" cy="20" r="2" fill="#D6D3EA"/><circle cx="38" cy="20" r="2" fill="#D6D3EA"/>
  <!-- clean slide, no comment layer, no draft stamp -->
  <rect x="26" y="38" width="30" height="3" rx="1.5" fill="#5241B5"/>
  <rect x="26" y="47" width="86" height="8" rx="2" fill="#22242B"/>
  <rect x="26" y="61" width="70" height="2.5" rx="1.25" fill="#D6D3EA"/>
  <rect x="26" y="68" width="58" height="2.5" rx="1.25" fill="#D6D3EA"/>
  <rect x="124" y="38" width="50" height="42" rx="4" fill="#EEEBFA"/>
  <rect x="26" y="96" width="14" height="3" rx="1.5" fill="#5241B5"/>
  <rect x="44" y="96" width="14" height="3" rx="1.5" fill="#D6D3EA"/>
  <rect x="62" y="96" width="14" height="3" rx="1.5" fill="#D6D3EA"/>
  <rect x="80" y="96" width="14" height="3" rx="1.5" fill="#D6D3EA"/>
  <!-- padlock -->
  <g transform="translate(146 88)">
    <rect x="0" y="9" width="26" height="19" rx="4" fill="#5241B5"/>
    <path d="M6 9V6a7 7 0 0 1 14 0v3" fill="none" stroke="#5241B5" stroke-width="3.2"/>
    <circle cx="13" cy="17" r="2.4" fill="#fff"/>
    <rect x="12" y="18" width="2" height="5" rx="1" fill="#fff"/>
  </g>
</svg>
